<?xml version="1.0" encoding="utf-8"?>
<!-- Generator: Adobe Illustrator 22.0.0, SVG Export Plug-In . SVG Version: 6.00 Build 0)  -->
<svg version="1.1" id="Layer_1" xmlns="http://www.w3.org/2000/svg" xmlns:xlink="http://www.w3.org/1999/xlink" x="0px" y="0px"
	 viewBox="0 0 1000 1000" style="enable-background:new 0 0 1000 1000;" xml:space="preserve">
<style type="text/css">
	.st0{fill:#333333;}
	.st1{fill:url(#SVGID_1_);}
	.st2{fill:url(#SVGID_2_);}
	.st3{fill:url(#SVGID_3_);}
</style>
<rect class="st0" width="1000" height="1000"/>
<g>
	<g>
		<linearGradient id="SVGID_1_" gradientUnits="userSpaceOnUse" x1="500" y1="308.3605" x2="500" y2="691.6395">
			<stop  offset="0" style="stop-color:#DFC56B"/>
			<stop  offset="1" style="stop-color:#A2702F"/>
		</linearGradient>
		<path class="st1" d="M892.2,384.2c-3-10.5-7.1-20.5-16.4-26.9c-9.6-6.7-22.5-10.4-33.8-12.9c-25.2-5.5-50.9,1.2-76.3-0.8
			c1.9-6.1,2.7-12.6,4-18.8c0.8-3.6,3.3-10.5,0.5-13.8c-6.1-7.1-16.9,1.7-19.9,6.9c-2.9,5.1-5.4,10.4-8,15.7
			c-2.6,5.4-5.2,12.8-9.9,16.9c-3.4,2.9-8.4,3.7-12.7,4.6c-6.1,1.4-12.2,3.2-18.3,5c-5.1,1.5-29,5.6-27.2,14.9
			c1.5,7.8,17.5-5,21-6.4c5.6-2.3,11.5-4,17.3-5.6c3.5-1,10.3-4.6,14-4.1c4.1,0.5,2.2,2.9,1.1,6.2c-2,6.1-3.7,12.3-5.4,18.5
			c-4.2,14.7-8.1,29.5-12.1,44.3c-3.2,11.7-5.5,23.7-9.6,35.2c-1,2.9-10.9,26.5-14.9,23.7c-2.8-1.9,4.5-22.8,4.9-24.2
			c1.7-6.4,3.4-12.8,5-19.2c0.7-3,2.8-7.9,1.5-11c-3.5-8.7-13.4,0.9-15.3,5.6c-2.3,5.9-12.7,56-22,49.1c-2.6-1.9,0.7-11,1.2-13.2
			c1.4-6.4,3.1-12.9,5-19.1c1.3-4.3,4.8-10.6,3.5-15.2c-1.3-4.8-6.6-4.3-10.2-2.2c-3.3,1.9-7.7,11.6-11.8,11.3
			c-3.7-0.2-3.4-7.2-8-8.3c-5.3-1.3-11.6,4.5-12.2,9.6c-0.6,5.9,5.1,7.8,9.7,8.9c-2.4,4-14.9,42.4-23.8,39.4
			c-6.2-2.1-0.7-17.7,0.4-21.4c1.2-3.9,2.4-7.8,3.5-11.7c1.8-6,2.6-13.6,5.9-18.9c2.6-4.3,6.9-7.8,10.1-11.8
			c3.9-4.9,7.3-10.2,10.3-15.7c5.7-10.3,10.1-21.4,14.7-32.2c4.8-11.1,10.1-22.2,13-34c1.9-7.6,5.8-25-1.9-30.7
			c-15.9-12-31.1,35.3-34.6,43.5c-10.8,24.9-19.1,50.7-26.1,76.9c-1.9,7.1-9.2,18.7-18.5,13.3c-4-2.3-3.2-7.5-9.1-6.5
			c-2.1,0.3-3.6,1.7-5.8,1.9c-2.6,0.2-5.1-1-7.7-1.1c-10.3,0-16.4,12.4-19.2,20.8c-3.3,10-4.4,20.4-9.8,29.6c-2,3.5-11.6,16-9.6,4.5
			c2-12,7.8-23.5,10.8-35.2c0.9-3.6,3.6-11,0.5-14.3c-3.2-3.4-10.2-0.9-13.2,1.6c-5.1,4.1-8.6,11-12.4,16.2
			c-1.6,2.3-3.2,4.7-5.3,6.7c-0.7,0.6-3.5,2.1-3.6,2.8c0.8-4.6,12.6-24,5-26.1c-7.7-2.2-13.6,11-15,15.9
			c-4.1,13.9-7.4,28.1-11.3,42.1c-1.8,6.7-3.6,13.3-5.5,20c-1.4,5-2.6,8.2-8.4,8.4c-0.6-11.1,6-23.3,9.3-33.8
			c4-12.6,7.6-25.3,11.2-37.9c0.8-2.8,3.1-8.2,0.3-10.6c-2.7-2.3-8.2,0.5-10.5,2.1c-7.7,5.1-5.8,20.7-8,28.9c-2,7-5,13.8-9.4,19.7
			c-5,6.6-8.7,4.6-7-3.8c2.2-11.3,6.9-22.3,9.7-33.4c0.7-2.7,2.3-7.2,0.2-9.7c-2.6-3.2-9.3-1.4-12.4,0c-6.3,2.9-8.2,9.1-12.5,13.8
			c-1.2,1.3-8.1,5.7-5.5,8.2c3.2,3.1,11.5-6.4,14.8-6.6c1.8,13.1-7.6,24.6-7.5,37.5c0,4.2,1.1,9,5.2,11c6.3,3,10.9-3.8,15-7.4
			c-1.8,6.4-0.4,13.7-3.1,19.9c-3.4,8-13.3,8.7-20.7,10.6c-20.1,5.4-40.3,14-58.7,23.6c-9,4.7-17.8,9.9-26,16
			c-3.4,2.6-6.7,5.4-9.8,8.3c-3.7,3.6-7.3,8.9-11.6,11.8c-6.3,4.2-14.9-4.7-19.4-8.7c-8.1-7.3-13.9-16.7-19.7-25.7
			c-6.2-9.6-12.2-19.3-18.1-29c-3.9-6.4-9.4-7-4.1-14c13-17.4,21.2-37.1,32.3-55.4c5.1-8.4,10.8-18.6,17.2-26.1
			c6.1-7.2,12.1-9.4,21.1-11.4c5.5-1.2,5.2-13-0.3-16.7c-4.4-3-10.7,1.4-14.2,3.9c-16.3,12.1-25.4,33.6-35.1,50.8
			c-5.7,10.2-11.4,20.5-17.5,30.5c-4.4,7.2-10.3,16.8-19.2,18.8c0.1-10.2,3.6-19.9,6.5-29.5c3.3-10.9,5.5-22,7.7-33.1
			c2.2-10.8,4.5-21.8,7.9-32.3c1.3-3.9,6-12.5-0.9-12.4c-4.8,0.1-10.2,6.4-14,8.9c-9.1,5.9-20,9.4-30.4,12.1
			c-10.3,2.8-20.9,4.7-31.3,7.1c-7.8,1.8-17.1,2.8-24,7c-6.5,3.9-10.2,11.1-11.4,18.4c-1.4,8.4,1.5,23.2,11,26.5
			c7.6,2.6,13.8-5.7,9.4-12.1c-4.8-7.1-4.2-3.7-6.9-12.6c-4.8-16.2,32.3-22.2,47.3-25.4c5.8-1.2,25.5-3.9,26.8,3.4
			c1.2,6.7-3.1,14-4.7,19.8c-12.2,44-24.4,84.6-36.5,128.7c-8.1,29.6-19.9,90.7-64.4,74.8c-15.3-5.5-26.6-20-26-36.6
			c0.3-9.8,4.4-19,8.9-27.6c3.3-6.3,8.5-11.6,11.5-18c2.6-5.4,2.2-10.2-4.1-12.4c-6.9-2.4-12.9,2.5-17,7.5
			c-9.7,12-15.8,29.5-16.1,44.9c-0.6,42.2,56.6,74.5,90.1,45.7c16.6-14.2,25.6-35.7,33-55.7c9-24,15.1-48.9,21.8-73.6
			c9.7,10.4,17.2,22.5,26.2,33.3c9.2,11,20.3,19.6,32.2,27.4c3.9,2.6,11.5,5.6,11.9,10.9c0.2,2.8-2.5,6.3-3.4,9
			c-1.1,3.1-1.8,6.3-2,9.6c-0.7,10.6,3.3,20.7,11.1,27.9c15.9,14.9,40,15.5,59.6,9.1c26.4-8.6,45.5-27.6,57.2-52.5
			c7.1-15.2,11.5-31.3,15.8-47.4c2.6-9.7,3.6-28.5,15.5-31.4c-8.4,30-15.4,61.1-26,90.4c-0.4,1.2-3.7,7.4-2.4,8.4
			c1.5,1.1,6.9-4.4,7.8-5.3c8.5-7.9,10-18.9,13.2-29.6c4.4-14.9,9-29.7,13.4-44.6c1.6-5.5,2.4-12.1,4.6-17.3
			c2.6-6.1,12.7-4.6,18.5-5.2c15.5-1.4,31.1-3,46.6-2.5c5.4,0.2,9.4,1.1,14.1,3.8c3.3,2,9.7,6.4,12.2,0.8c3-6.6-7.2-11-11.8-11.4
			c-6.8-0.7-14.1,0-20.9,0.3c-18.5,0.7-37,2.5-55.4,4.4c3.1-10.6,4.1-22.5,9.3-32.4c2.3-4.5,6.1-7.7,9.4-11.3
			c3.9-4.3,7.4-9,11.4-13.3c-2.2,10.2-12.5,29.3-1.7,37.7c9.9,7.7,20.3-8.9,25.1-15.6c5.8,18.5,27.8,13.4,35.9-0.7
			c4.8-8.3,7.2-18.4,9.2-27.7c0.8-3.7,1-7.9,3.5-10.9c3.1-3.8,8-4.1,12.2-5.9c-1.7,10.5-4.3,21.5-2.5,32.1c1.3,8,7.9,21.4,17.6,14.6
			c8.4-5.9,13.6-19.8,17.6-28.5c4.1-8.8,6.6-21.7,15.5-27.1c3.4,11-18.2,46.9-0.5,51.1c8.4,2,12.3-6.8,17-11.6
			c8.4-8.3,6.8,9.5,16.4,5.7c4.9-2,7.5-7.6,11.2-10.9c3.1-2.8,4.2-1.7,3.9,2.7c-0.2,2.5-2.6,6.1-0.5,8.3c2.6,2.6,7.9-0.7,9.5-2.8
			c5-6.3,3.3-17.3,6.7-24.7c3.7-8,10.5-19.1,17.3-24.7c-2,19.1-14.2,40.6-0.5,58.2c9.7,12.6,27.6,13.9,42.2,11.9
			c20.5-2.8,40.6-11.8,57.4-23.6c17.7-12.5,35.4-29.3,46.7-47.8c10.7-17.5,18.8-39.4,13.1-60c0.4,1.4,0.8,2.8,1.2,4.1
			C892.6,385.7,892.4,385,892.2,384.2C889.7,375.3,894.4,391.8,892.2,384.2z M646.1,379.4c4.3-10.6,9.5-20.8,13-31.7
			c0.7-2.1,5.6-17.7,7.3-11.8c1.4,5.1-4.6,16.1-6.2,21c-4.3,12.7-9,25.2-13.8,37.7c-2.9,7.5-6,15.1-9.5,22.3
			c-1,2-8.1,16.3-10.1,10.9c-1.8-4.9,5.9-16.1,7.8-20.6c4.1-9.8,8.3-19.5,12.3-29.4c-1,2.5-2,5-3.1,7.5
			C644.5,383.3,645.3,381.3,646.1,379.4C650,369.7,639.3,395.9,646.1,379.4z M453.4,554.9c-11.6,45.7-23.4,112.8-80.9,119.3
			c-14.7,1.7-32.7,0.6-42.8-11.8c-4.8-5.9-7.3-13.8-6.8-21.3c0.4-6.1,3.8-17.4,11.5-16.8c4,0.3,8.1,3.2,12.1,4.1
			c4.1,0.9,8.2,1.4,12.4,1.8c9.3,0.8,18.8,0.6,27.9-1.6c12.7-3.1,28.9-12,31.8-26.1c1.3-6.3-3.1-7.4-8.3-4.4
			c-7.1,4.1-9.3,13.2-16.3,17.5c-7.8,4.8-18.5,4.8-27.3,4.6c-9.7-0.3-20.2-0.5-29.1-4.9c15.9-14.4,33.3-27,52.4-36.8
			c10.4-5.3,21.1-9.9,31.9-14.1c9.7-3.9,21.5-9.4,31.9-10.8C453.6,554.2,453.5,554.5,453.4,554.9
			C441.8,600.9,453.5,554.5,453.4,554.9z M576.9,465.7c-2.7,11.4-3.3,23.1-8.9,33.5c-3.3,6.1-12.5,14.4-11.7,1.8
			c0.7-10.9,3.6-22.1,8.5-31.9c1.6-3.2,5.2-11.3,10-10.5c4.1,0.6,2.4,5.6,1.7,8.6c0.2-0.8,0.4-1.7,0.6-2.5
			C577.1,465,577,465.4,576.9,465.7C575,473.7,577.8,461.8,576.9,465.7z M637.6,449.3c0.8,5.9-7.8,1.4-4.4-2.2
			C635.4,444.8,637,449.3,637.6,449.3C638.2,453.9,638.2,449.2,637.6,449.3z M762.4,327.3c-0.6,4.1-3.5,19.7-9,18.3
			C755.2,339,758.8,333.1,762.4,327.3c-0.1,0.5-1.6,5-1.8,4.6C760.1,330.7,761.9,328.1,762.4,327.3
			C761.9,331.4,758.8,333.1,762.4,327.3z M740.6,381.1c1.7-5.8,4.6-11.2,7-16.7c1.5-3.4,2.9-9.7,6.7-11.2
			c-3.9,11.5-7.9,22.9-12.4,34.1c-3.8,9.4-6.4,20.4-12.9,28.3c2.4-12.3,8.4-23.5,11.9-35.5c-0.5,1.8-1,3.5-1.5,5.3
			C739.8,384,740.2,382.6,740.6,381.1C742.1,375.8,737.2,392.9,740.6,381.1z M877.8,428.6c-10,20-26.9,36.1-44.1,49.9
			c-17.1,13.7-38.1,25-60,28.6c-9.6,1.6-21.1,0.6-28-7.2c-6.5-7.4-6.5-18.4-5.3-27.6c1.5-11.1,5.4-21.6,8.6-32.2
			c1.9-6.3,8-21-4.6-15.9c-6.5,2.6-10.3,9.1-14.4,14.4c-2.1,2.7-4.2,5.5-6.6,7.9c-0.5,0.5-3.9,2.9-4,3c1.5-7,7.9-14.5,11.7-21.4
			c6.1-11.1,11.1-22.6,16-34.2c4.4-10.6,9.3-21.3,13.1-32.1c1.1-3,1.4-8,3.9-10.2c3.3-3,10.4-2.1,14.4-2.5c22.8-2,46.9-2.4,68.9,4.6
			c17.8,5.7,36.2,14.7,38.7,35.2c1.9,15.5-3.6,30.4-10.4,44c2.4-4.9,4.9-9.7,7.3-14.6C881.3,421.7,879.5,425.2,877.8,428.6
			C868.1,447.9,893.2,397.9,877.8,428.6z"/>
	</g>
	<g>
		<linearGradient id="SVGID_2_" gradientUnits="userSpaceOnUse" x1="368.5747" y1="466.5027" x2="368.5747" y2="546.0355">
			<stop  offset="0" style="stop-color:#DFC56B"/>
			<stop  offset="1" style="stop-color:#A2702F"/>
		</linearGradient>
		<path class="st2" d="M429.6,467.1c-9.6-1.4-11.8,7.5-13.2,15c-2,11.1-4.9,22.8-10.5,32.8c-1.6,2.8-4.9,9.2-8.8,9.1
			c-5.5-0.1-3.7-7.5-2.9-10.8c1.5-6.2,3.6-12.2,6.1-18.1c2.1-4.9,5.8-9.6,7-14.8c1.2-4.8-0.6-8.5-5.8-9.2c-5.2-0.7-7.2,1.6-8.3,6.1
			c-2.9,12.4-6.9,24.5-11.4,36.4c-1.7,4.4-3.8,9.7-8.1,12.2c-3.2,1.9-4.9,1.5-5-2.2c-0.1-2.9,1.3-6.1,2.2-8.9
			c2.2-7.1,4.4-14.2,6.6-21.2c1.2-3.9,5.5-12,3-16c-2.2-3.5-8.3-3.3-11.8-2.4c-5.2,1.3-8.8,5.6-13.4,7.8c-5.1,2.5-9.3-0.8-14.9,0.1
			c-5.4,0.8-6.8-0.9-11.3-2.8c-5.1-2-9.3,1-12.9,4.9c-8.2,9-13.2,22.6-13.7,34.6c-0.4,9.9,1.7,21.8,12.4,25.3
			c9.1,3,17.8-1.5,23.1-8.8c6.8-9.5,10.2-21.4,11.9-32.8c0.7-4.7,0.7-7.6,4.7-10.5c2.6-1.9,7.7-5.8,8.6-1.5
			c0.7,3.3-2.7,10.7-3.6,13.9c-1.5,5.8-3.4,11.7-4.5,17.6c-1.6,9.4,2.5,25,15.5,17.2c3.4-2,5.4-10.2,9.8-9.8c3.3,0.3,4.2,5.6,7,7.1
			c5.3,2.9,10.7-2.5,14.1-6c1.8-1.8,6-8.3,8.9-8c0.3,0-1.7,5.6-1.7,6c-0.4,3.8,1.1,6.2,5.1,7c7.6,1.5,14.7-6.8,18.3-12.5
			c0.6-1,4.6-7.5,0.9-7.5c-1.9,0-3.6,4.1-4.7,5.3c-3.2,3.4-10.4,7.2-9.3-0.5C420.1,514.5,442.4,468.9,429.6,467.1
			C416.5,465.2,441.9,468.8,429.6,467.1z M335.7,508.3c-1.6,4.5-7.7,32.4-14.4,30.5c-5.6-1.6-5.6-18.5-5.1-22.7
			c0.7-6.1,3.1-11.7,6.6-16.7c1.8-2.6,6.6-10.2,10.7-9.5C339.5,490.9,337,504.6,335.7,508.3z"/>
	</g>
	<g>
		<linearGradient id="SVGID_3_" gradientUnits="userSpaceOnUse" x1="394.92" y1="440.1837" x2="394.92" y2="464.7053">
			<stop  offset="0" style="stop-color:#DFC56B"/>
			<stop  offset="1" style="stop-color:#A2702F"/>
		</linearGradient>
		<path class="st3" d="M362.9,464.6c18.7-3.1,37.1-7.4,55.8-10.9c4.9-0.9,15.2-0.4,17.2-6.1c2.4-7-6.2-8.4-10.7-7
			c-17.7,5.5-35.6,10.1-53.7,14.1c-3.2,0.7-19.4,2.7-17.8,6.4c1.5,3.5,9.2,3.5,12.1,3C365.3,464.3,362,464.8,362.9,464.6
			C374.8,462.7,360.3,465.1,362.9,464.6z"/>
	</g>
</g>
</svg>
